<svg xmlns="http://www.w3.org/2000/svg" viewBox="0 0 1200 630" role="img" aria-labelledby="title desc">
  <title id="title">AIterval social preview</title>
  <desc id="desc">AIterval turns AI waiting time into English listening practice</desc>
  <rect width="1200" height="630" fill="#f7f4ed"/>
  <circle cx="1080" cy="80" r="220" fill="#f5d8cf" opacity=".65"/>
  <g transform="translate(68 70) scale(.75)">
    <rect x="4" y="4" width="120" height="120" rx="30" fill="#132d46"/>
    <path d="M64 22c-25 0-45 17.5-45 39.5 0 12.7 6.7 24.2 17 32l-5 21 23-12c3.3.7 6.6 1 10 1 25 0 45-18.8 45-42S89 22 64 22Z" fill="#79d6b0"/>
    <path d="M64 34c19.3 0 33 12.4 33 27.5S83.3 91.5 64 91.5c-4 0-7.6-.5-11.2-1.5l-7.5 3.9 2-7.6-4.4-3.2C35.2 77.5 31 70 31 61.5 31 46.4 44.7 34 64 34Z" fill="#132d46"/>
    <path d="M57 46.5v30.9c0 3 3.3 4.8 5.8 3.2l24-15.5c2.3-1.5 2.3-4.9 0-6.4l-24-15.5c-2.5-1.6-5.8.2-5.8 3.3Z" fill="#ff7355"/>
  </g>
  <text x="180" y="142" font-family="-apple-system,BlinkMacSystemFont,'Segoe UI',sans-serif" font-size="58" font-weight="850" fill="#10263d">AIterval</text>
  <text x="68" y="260" font-family="Georgia,serif" font-size="78" font-weight="700" fill="#10263d">Listen while</text>
  <text x="68" y="345" font-family="Georgia,serif" font-size="78" font-weight="700" fill="#10263d">AI thinks</text>
  <circle cx="366" cy="334" r="8" fill="#f06a4a"/>
  <text x="72" y="408" font-family="-apple-system,BlinkMacSystemFont,'Segoe UI',sans-serif" font-size="24" font-weight="650" fill="#415369">AI waiting time → English listening practice.</text>
  <g transform="translate(665 104)">
    <rect width="475" height="420" rx="42" fill="#10263d"/>
    <rect x="48" y="55" width="379" height="118" rx="25" fill="#203a55"/>
    <circle cx="95" cy="114" r="24" fill="#7bd4ae"/>
    <rect x="140" y="88" width="230" height="13" rx="7" fill="#8ea0b1"/>
    <rect x="140" y="118" width="174" height="13" rx="7" fill="#667c91"/>
    <rect x="48" y="205" width="379" height="162" rx="25" fill="#fffdf7"/>
    <circle cx="125" cy="286" r="46" fill="#f06a4a"/>
    <path d="M112 263v46l37-23-37-23Z" fill="#fffdf7"/>
    <g fill="#7bd4ae">
      <rect x="205" y="274" width="7" height="24" rx="4"/><rect x="219" y="262" width="7" height="48" rx="4"/><rect x="233" y="250" width="7" height="72" rx="4"/><rect x="247" y="268" width="7" height="36" rx="4"/><rect x="261" y="257" width="7" height="58" rx="4"/><rect x="275" y="271" width="7" height="30" rx="4"/><rect x="289" y="246" width="7" height="80" rx="4"/><rect x="303" y="263" width="7" height="46" rx="4"/><rect x="317" y="276" width="7" height="20" rx="4"/><rect x="331" y="259" width="7" height="54" rx="4"/>
    </g>
  </g>
  <text x="72" y="563" font-family="-apple-system,BlinkMacSystemFont,'Segoe UI',sans-serif" font-size="22" font-weight="750" fill="#9a4935">LOCAL-FIRST · 132 PRE-AUTHORED EXERCISES</text>
</svg>
